<svg width="55" height="55" viewBox="0 0 55 55" fill="none" xmlns="http://www.w3.org/2000/svg">
<g clip-path="url(#clip0)">
<path d="M10.8322 46.1872L16.6028 38.9738V34.2243L21.5945 31.8622V27.616L21.0492 25.014L12.4764 21.3481C9.26842 24.9227 7.31451 29.6445 7.31451 34.8146C7.31451 39.0297 8.61401 42.9465 10.8322 46.1872Z" fill="#0084C8"/>
<path d="M30.6267 45.8489L35.2513 40.482L35.2133 39.7855L30.8118 35.4356L31.3711 28.1371L36.7805 27.4355L40.8145 27.9221L45.7508 26.1959C43.1893 20.7943 38.2989 16.7034 32.3843 15.2279V10.7369H38.3559C41.694 10.7369 44.4097 8.02125 44.4097 4.68313V0H35.2172C31.8791 0 29.1632 2.7157 29.1632 6.05381V14.698C28.6146 14.653 28.06 14.629 27.5 14.629C26.94 14.629 26.3854 14.653 25.8367 14.698V6.08065C25.8367 2.74254 23.1209 0.0268424 19.7828 0.0268424H10.5903V4.70998C10.5903 8.04809 13.306 10.7638 16.6441 10.7638H22.6156V15.2279C19.8162 15.9262 17.2469 17.2112 15.0445 18.943L23.8579 22.7116L24.8158 27.2819V33.9015L19.824 36.2636V40.1037L12.9084 48.7482C16.5863 52.5981 21.7679 54.9999 27.5 54.9999C29.982 54.9999 32.3604 54.5485 34.5587 53.7253L30.6267 45.8489Z" fill="#0084C8"/>
<path d="M46.893 29.2089L41.1718 31.2096L36.795 30.6817L34.3827 30.9947L34.1376 34.1936L38.3621 38.3687L38.5383 41.6021L34.466 46.328L37.476 52.3575C43.569 48.8791 47.6855 42.3188 47.6855 34.8147C47.6855 32.8701 47.4084 30.9893 46.893 29.2089Z" fill="#0084C8"/>
</g>
<defs>
<clipPath id="clip0">
<rect width="55" height="55" fill="white"/>
</clipPath>
</defs>
</svg>
