<svg width="55" height="55" viewBox="0 0 55 55" fill="none" xmlns="http://www.w3.org/2000/svg">
<g clip-path="url(#clip0)">
<path d="M27.4998 24.528C25.8611 24.528 24.5279 25.8613 24.5279 27.5001C24.5279 29.1388 25.8611 30.4721 27.4998 30.4721C29.1387 30.4721 30.4719 29.1389 30.4719 27.5001C30.4719 25.8612 29.1387 24.528 27.4998 24.528Z" fill="#0084C8"/>
<path d="M49.6532 35.5118L48.2061 32.6322L43.611 34.9413L38.428 31.9489L47.5202 27.5893L38.3549 23.0936L43.6111 20.0589L48.2062 22.368L49.6533 19.4884L46.9512 18.1306L50.9759 15.8069L49.3646 13.0161L45.3399 15.3397L45.5151 12.3207L42.2978 12.134L42 17.2681L36.817 20.2605L37.5874 10.2065L29.1112 15.8963V9.82687L33.4086 7.00174L31.6382 4.30886L29.1112 5.97016V1.32281H25.8885V5.97005L23.3617 4.30886L21.5914 7.00174L25.8885 9.82687V15.8114L17.5668 10.1172L18.2564 20.3027L13.0001 17.268L12.7022 12.1339L9.48496 12.3206L9.66017 15.3396L5.63544 13.0159L4.02409 15.8068L8.04882 18.1305L5.34669 19.4883L6.79379 22.3679L11.3889 20.0588L16.5718 23.0512L7.47958 27.4109L16.645 31.9065L11.3888 34.9413L6.79368 32.6322L5.34658 35.5118L8.04871 36.8696L4.02399 39.1933L5.63534 41.9841L9.66006 39.6605L9.48496 42.6795L12.7022 42.8662L13.0001 37.7321L18.183 34.7398L17.4125 44.7936L25.8885 39.1039V45.1732L21.5912 47.9983L23.3616 50.6912L25.8885 49.03V53.6773H29.1112V49.0299L31.6381 50.6911L33.4085 47.9982L29.1112 45.1732V39.1886L37.4329 44.8827L36.7434 34.6974L41.9998 37.7321L42.2976 42.8662L45.5149 42.6795L45.3396 39.6605L49.3644 41.9841L50.9757 39.1933L46.951 36.8696L49.6532 35.5118ZM27.4999 33.6948C24.0841 33.6948 21.3052 30.9158 21.3052 27.5C21.3052 24.0843 24.0841 21.3053 27.4999 21.3053C30.9157 21.3053 33.6946 24.0842 33.6946 27.5C33.6946 30.9159 30.9157 33.6948 27.4999 33.6948Z" fill="#0084C8"/>
<path d="M14.3568 48.1189L12.0781 45.8401L11.1918 46.7264L10.3057 45.8401L8.02701 48.1189L8.91325 49.005L8.02701 49.8913L10.3057 52.17L11.1918 51.2839L12.0781 52.17L14.3568 49.8913L13.4707 49.005L14.3568 48.1189Z" fill="#0084C8"/>
<path d="M45.8269 3.96295L43.5482 1.68418L42.662 2.57042L41.7759 1.68418L39.4971 3.96295L40.3832 4.8492L39.4971 5.73544L41.7759 8.0141L42.662 7.12797L43.5482 8.0141L45.8269 5.73544L44.9407 4.8492L45.8269 3.96295Z" fill="#0084C8"/>
<path d="M2.2786 25.2208L-0.000167847 27.4996L2.2786 29.7783L4.55738 27.4996L2.2786 25.2208Z" fill="#0084C8"/>
<path d="M42.408 46.9791L40.1292 49.2579L42.408 51.5367L44.6867 49.2579L42.408 46.9791Z" fill="#0084C8"/>
<path d="M52.7207 25.2215L50.442 27.5002L52.7207 29.779L54.9995 27.5002L52.7207 25.2215Z" fill="#0084C8"/>
<path d="M10.3247 3.46314L8.04596 5.74192L10.3247 8.02069L12.6035 5.74192L10.3247 3.46314Z" fill="#0084C8"/>
</g>
<defs>
<clipPath id="clip0">
<rect width="55" height="55" fill="white"/>
</clipPath>
</defs>
</svg>
