<svg width="48" height="48" viewBox="0 0 48 48" fill="none" xmlns="http://www.w3.org/2000/svg">
<path d="M44.1891 32.0644C44.8875 31.9153 45.5128 31.5666 45.9994 31.08C46.6556 30.4228 47.0625 29.5144 47.0625 28.5122C47.0625 26.5069 45.4369 24.8812 43.4316 24.8812H44.3691C45.3712 24.8812 46.2797 24.4744 46.9369 23.8181C47.5882 23.1658 47.994 22.2659 47.9999 21.2724C48.0119 19.2632 46.3137 17.6194 44.3045 17.6194H34.1756V7.77281C34.1756 7.69678 34.1745 7.62103 34.1722 7.54547C34.0687 4.06912 31.1549 1.33406 27.677 1.33406H25.035V7.23281C25.035 8.39906 24.7941 9.55312 24.3291 10.6228L21.5241 16.5637C16.9731 17.7652 14.5594 20.1286 13.2813 22.3775V43.2123L18.9834 45.3497C21.3037 46.2197 23.7628 46.6659 26.2434 46.6659H41.5566C42.5587 46.6659 43.4672 46.26 44.1244 45.6028C44.7806 44.9456 45.1875 44.0381 45.1875 43.035C45.1875 41.0297 43.5619 39.4041 41.5566 39.4041H42.4941C43.4962 39.4041 44.4047 38.9981 45.0619 38.3409C45.7181 37.6837 46.125 36.7762 46.125 35.7731C46.125 33.7987 44.55 32.1928 42.5878 32.1431H43.4316C43.6912 32.1431 43.9444 32.1159 44.1891 32.0644Z" fill="#0084C8"/>
<path d="M0 16.9734V46.6659H10.5131V16.9734H0ZM6.44437 23.1628H4.10063V20.8191H6.44437V23.1628Z" fill="#0084C8"/>
</svg>
