<svg width="55" height="55" viewBox="0 0 55 55" fill="none" xmlns="http://www.w3.org/2000/svg">
<path d="M27.5 11.6875C18.781 11.6875 11.6875 18.781 11.6875 27.5C11.6875 36.219 18.781 43.3125 27.5 43.3125C36.219 43.3125 43.3125 36.219 43.3125 27.5C43.3125 18.781 36.219 11.6875 27.5 11.6875ZM25.6528 33.9884L19.7028 28.0985L22.6047 25.1669L25.63 28.1616L32.3837 21.3707L35.3085 24.2795L25.6528 33.9884Z" fill="#0084C8"/>
<path d="M52.3882 22.1082C51.6684 21.5387 51.4111 20.5785 51.7496 19.7253C52.4979 17.8398 52.4088 15.6434 51.3157 13.75C50.2226 11.8566 48.3649 10.6811 46.3579 10.3865C45.4497 10.2531 44.7468 9.5502 44.6134 8.64201C44.3187 6.63506 43.1434 4.77744 41.25 3.68431C39.3566 2.59119 37.1602 2.50209 35.2747 3.25036C34.4215 3.58903 33.4613 3.33176 32.8918 2.61181C31.633 1.02108 29.6863 0 27.5 0C25.3138 0 23.367 1.02108 22.1082 2.61181C21.5387 3.33163 20.5785 3.58889 19.7253 3.25036C17.8398 2.50209 15.6434 2.59119 13.75 3.68431C11.8566 4.77744 10.6813 6.63506 10.3865 8.64215C10.2531 9.55034 9.5502 10.2532 8.64201 10.3866C6.63506 10.6811 4.77744 11.8566 3.68431 13.75C2.59119 15.6434 2.50209 17.8398 3.25036 19.7253C3.58903 20.5785 3.33176 21.5387 2.61181 22.1082C1.02108 23.367 0 25.3138 0 27.5C0 29.6863 1.02108 31.633 2.61181 32.8918C3.33163 33.4613 3.58889 34.4215 3.25036 35.2747C2.50209 37.1602 2.59119 39.3566 3.68431 41.25C4.77744 43.1434 6.63506 44.3187 8.64215 44.6135C9.55034 44.7469 10.2532 45.4497 10.3866 46.358C10.6813 48.3651 11.8568 50.2227 13.7501 51.3158C15.6435 52.409 17.8399 52.4981 19.7255 51.7498C20.5787 51.4111 21.5388 51.6684 22.1083 52.3883C23.367 53.9789 25.3138 55 27.5 55C29.6863 55 31.633 53.9789 32.8918 52.3882C33.4613 51.6684 34.4215 51.4111 35.2747 51.7496C37.1602 52.4979 39.3566 52.4088 41.25 51.3157C43.1434 50.2226 44.3189 48.3649 44.6135 46.3579C44.7469 45.4497 45.4498 44.7468 46.358 44.6134C48.3651 44.3187 50.2227 43.1432 51.3158 41.2499C52.409 39.3565 52.4981 37.1601 51.7498 35.2745C51.4111 34.4213 51.6684 33.4612 52.3883 32.8917C53.9789 31.633 55 29.6863 55 27.5C55 25.3138 53.9789 23.367 52.3882 22.1082ZM27.5 47.4375C16.5065 47.4375 7.5625 38.4935 7.5625 27.5C7.5625 16.5065 16.5065 7.5625 27.5 7.5625C38.4935 7.5625 47.4375 16.5065 47.4375 27.5C47.4375 38.4935 38.4935 47.4375 27.5 47.4375Z" fill="#0084C8"/>
</svg>
