<svg width="55" height="55" viewBox="0 0 55 55" fill="none" xmlns="http://www.w3.org/2000/svg">
<path d="M20.4051 39.4444L18.6196 42.1232C19.2587 42.5496 19.6255 43.2348 19.6255 44.0031C19.6255 44.7714 19.2587 45.4567 18.6196 45.883C17.0918 46.9014 16.18 48.6055 16.18 50.4413C16.18 52.2775 17.0918 53.9816 18.6196 55L20.4051 52.3216C19.766 51.8953 19.3989 51.21 19.3989 50.4413C19.3989 49.673 19.766 48.9877 20.4051 48.5614C21.9329 47.543 22.8448 45.8389 22.8448 44.0031C22.8448 42.1673 21.9329 40.4628 20.4051 39.4444Z" fill="#0084C8"/>
<path d="M28.4534 39.4444L26.6675 42.1232C27.307 42.5496 27.6737 43.2348 27.6737 44.0031C27.6737 44.7714 27.307 45.4567 26.6675 45.883C25.1401 46.9014 24.2278 48.6055 24.2278 50.4413C24.2278 52.2775 25.1401 53.9816 26.6675 55L28.4534 52.3216C27.8139 51.8953 27.4471 51.21 27.4471 50.4413C27.4471 49.673 27.8139 48.9877 28.4534 48.5614C29.9808 47.543 30.893 45.8389 30.893 44.0031C30.893 42.1673 29.9808 40.4628 28.4534 39.4444Z" fill="#0084C8"/>
<path d="M36.5012 39.4444L34.7157 42.1232C35.3548 42.5496 35.7216 43.2348 35.7216 44.0031C35.7216 44.7714 35.3548 45.4567 34.7157 45.883C33.1879 46.9014 32.2761 48.6055 32.2761 50.4413C32.2761 52.2775 33.1879 53.9816 34.7157 55L36.5012 52.3216C35.8621 51.8953 35.495 51.21 35.495 50.4413C35.495 49.673 35.8621 48.9877 36.5012 48.5614C38.029 47.543 38.9409 45.8389 38.9409 44.0031C38.9409 42.1673 38.029 40.4628 36.5012 39.4444Z" fill="#0084C8"/>
<path d="M45.1856 19.4782V8.04825C45.1856 3.61038 41.5752 0 37.1378 0H29.7042L28.5944 2.21977C26.4098 6.58882 23.5938 8.41751 20.3329 10.5357C18.0918 11.991 15.5514 13.6409 12.9758 16.2836C10.0771 19.257 9.01756 23.5422 10.3347 27.7295C11.7837 32.3344 16.0868 35.4119 21.0618 35.4115C21.0929 35.4115 21.1248 35.411 21.1554 35.411C24.535 35.3846 26.4543 34.2088 27.996 33.2639C29.113 32.5795 29.7894 32.1922 30.6992 32.1922C31.5426 32.1922 31.8619 32.4943 32.5665 33.2387C33.4212 34.1417 34.5915 35.3783 37.04 35.4106C37.074 35.411 37.1084 35.4115 37.1424 35.4115C40.8883 35.4115 44.2603 32.6974 45.0106 29.0597C46.0659 23.9458 42.2 19.3154 37.1378 19.3154C34.9881 19.3154 32.9672 20.1525 31.4469 21.6724L29.1705 19.3959C31.2988 17.2681 34.1283 16.0961 37.1378 16.0961C40.1934 16.0961 43.0728 17.3176 45.1856 19.4782Z" fill="#0084C8"/>
</svg>
