<svg width="65" height="65" viewBox="0 0 65 65" fill="none" xmlns="http://www.w3.org/2000/svg">
<path d="M57.3828 37.7686H7.61719C3.41707 37.7686 0 41.1856 0 45.3857C0 49.5859 3.41707 53.0029 7.61719 53.0029H57.3828C61.5829 53.0029 65 49.5859 65 45.3857C65 41.1856 61.5829 37.7686 57.3828 37.7686ZM9.64844 47.29C8.59676 47.29 7.74414 46.4374 7.74414 45.3857C7.74414 44.3341 8.59676 43.4814 9.64844 43.4814C10.7001 43.4814 11.5527 44.3341 11.5527 45.3857C11.5527 46.4374 10.7001 47.29 9.64844 47.29ZM17.2656 47.29C16.2139 47.29 15.3613 46.4374 15.3613 45.3857C15.3613 44.3341 16.2139 43.4814 17.2656 43.4814C18.3173 43.4814 19.1699 44.3341 19.1699 45.3857C19.1699 46.4374 18.3173 47.29 17.2656 47.29ZM24.8828 47.29C23.8311 47.29 22.9785 46.4374 22.9785 45.3857C22.9785 44.3341 23.8311 43.4814 24.8828 43.4814C25.9345 43.4814 26.7871 44.3341 26.7871 45.3857C26.7871 46.4374 25.9345 47.29 24.8828 47.29ZM32.5 47.29C31.4483 47.29 30.5957 46.4374 30.5957 45.3857C30.5957 44.3341 31.4483 43.4814 32.5 43.4814C33.5517 43.4814 34.4043 44.3341 34.4043 45.3857C34.4043 46.4374 33.5517 47.29 32.5 47.29ZM40.1172 47.29C39.0655 47.29 38.2129 46.4374 38.2129 45.3857C38.2129 44.3341 39.0655 43.4814 40.1172 43.4814C41.1689 43.4814 42.0215 44.3341 42.0215 45.3857C42.0215 46.4374 41.1689 47.29 40.1172 47.29ZM47.7344 47.29C46.6827 47.29 45.8301 46.4374 45.8301 45.3857C45.8301 44.3341 46.6827 43.4814 47.7344 43.4814C48.7861 43.4814 49.6387 44.3341 49.6387 45.3857C49.6387 46.4374 48.7861 47.29 47.7344 47.29ZM55.3516 47.29C54.2999 47.29 53.4473 46.4374 53.4473 45.3857C53.4473 44.3341 54.2999 43.4814 55.3516 43.4814C56.4032 43.4814 57.2559 44.3341 57.2559 45.3857C57.2559 46.4374 56.4032 47.29 55.3516 47.29Z" fill="#0084C8"/>
<path d="M21.9629 25.0732V30.6592H18.1543V25.0732H11.8066V35.2295H28.3105V25.0732H21.9629Z" fill="#0084C8"/>
<path d="M49.0039 21.7725H42.6562V28.8818H49.0039V21.7725Z" fill="#0084C8"/>
<path d="M49.0039 32.6904H42.6562V35.2295H49.0039V32.6904Z" fill="#0084C8"/>
<path d="M32.5 28.7549V35.2296H38.8477V21.8027C35.2941 22.1247 32.5 25.119 32.5 28.7549Z" fill="#0084C8"/>
<path d="M52.8125 21.8027V35.2296H59.1602V28.7549C59.1602 25.1189 56.366 22.1246 52.8125 21.8027Z" fill="#0084C8"/>
<path d="M45.8301 2.72949C40.9298 2.72949 36.9434 6.71607 36.9434 11.6162C36.9434 16.5163 40.9298 20.5029 45.8301 20.5029C50.7303 20.5029 54.7168 16.5163 54.7168 11.6162C54.7168 6.71607 50.7303 2.72949 45.8301 2.72949Z" fill="#0084C8"/>
<path d="M57.3828 56.8115H7.61719C7.44694 56.8115 7.27784 56.8071 7.10938 56.7996V62.2705H57.8906V56.7996C57.7222 56.8069 57.5531 56.8115 57.3828 56.8115Z" fill="#0084C8"/>
</svg>
