<svg width="65" height="65" viewBox="0 0 65 65" fill="none" xmlns="http://www.w3.org/2000/svg">
<g clip-path="url(#clip0)">
<path d="M21.2923 58.7634H43.7078V64.9988H21.2923V58.7634Z" fill="#0084C8"/>
<path d="M21.2923 48.9126H43.7078V54.9549H21.2923V48.9126Z" fill="#0084C8"/>
<path d="M65 26.2252V19.5014L32.4999 0.00146484L0 19.5014V26.2252H65ZM21.8545 17.484H43.1454V21.2924H21.8545V17.484Z" fill="#0084C8"/>
<path d="M21.2923 38.7749H43.7078V45.1041H21.2923V38.7749Z" fill="#0084C8"/>
<path d="M0 64.9987H17.4839V34.9665H47.5162V64.9987H64.9986V30.0337H0V64.9987ZM52.4489 34.9665H56.2573V38.7749H52.4489V34.9665ZM52.4489 43.7078H56.2573V47.5162H52.4489V43.7078ZM52.4489 52.4491H56.2573V56.2576H52.4489V52.4491ZM8.74252 34.9665H12.551V38.7749H8.74252V34.9665ZM8.74252 43.7078H12.551V47.5162H8.74252V43.7078ZM8.74252 52.4491H12.551V56.2576H8.74252V52.4491Z" fill="#0084C8"/>
</g>
<defs>
<clipPath id="clip0">
<rect width="65" height="65" fill="white"/>
</clipPath>
</defs>
</svg>
